<svg viewBox="0 0 200 200" xmlns="http://www.w3.org/2000/svg">
  <defs>
    <radialGradient id="ballGrad" cx="38%" cy="32%" r="60%">
      <stop offset="0%" stop-color="#FFD060"/>
      <stop offset="45%" stop-color="#E8900A"/>
      <stop offset="100%" stop-color="#B85F00"/>
    </radialGradient>
    <radialGradient id="shadowGrad" cx="50%" cy="50%" r="50%">
      <stop offset="0%" stop-color="rgba(0,0,0,0.2)"/>
      <stop offset="100%" stop-color="rgba(0,0,0,0)"/>
    </radialGradient>
  </defs>

  <!-- Shadow -->
  <ellipse cx="100" cy="176" rx="60" ry="13" fill="rgba(0,0,0,0.18)"/>

  <!-- Main ball -->
  <circle cx="100" cy="100" r="72" fill="url(#ballGrad)"/>

  <!-- Crispy texture bumps -->
  <circle cx="72" cy="75" r="9" fill="#D07808" opacity="0.45"/>
  <circle cx="96" cy="65" r="7" fill="#C86E06" opacity="0.4"/>
  <circle cx="120" cy="78" r="10" fill="#D07808" opacity="0.4"/>
  <circle cx="80" cy="100" r="8" fill="#C06800" opacity="0.35"/>
  <circle cx="116" cy="105" r="9" fill="#D07808" opacity="0.4"/>
  <circle cx="90" cy="122" r="8" fill="#C06800" opacity="0.35"/>
  <circle cx="115" cy="130" r="7" fill="#C86E06" opacity="0.35"/>
  <circle cx="68" cy="118" r="7" fill="#C06800" opacity="0.3"/>
  <circle cx="128" cy="90" r="6" fill="#D07808" opacity="0.35"/>
  <!-- Inner texture detail -->
  <circle cx="84" cy="88" r="4" fill="#B86000" opacity="0.3"/>
  <circle cx="108" cy="92" r="4" fill="#B86000" opacity="0.28"/>
  <circle cx="98" cy="112" r="3.5" fill="#B86000" opacity="0.28"/>

  <!-- Highlight -->
  <ellipse cx="80" cy="72" rx="22" ry="16" fill="rgba(255,240,180,0.42)" transform="rotate(-15, 80, 72)"/>

  <!-- Mayo/cream drizzle on top -->
  <path d="M68,58 C75,48 88,44 100,46 C112,44 122,50 128,58 C118,52 108,50 100,52 C92,50 80,54 68,58 Z" fill="white" opacity="0.92"/>
  <path d="M74,54 C82,44 95,40 104,43 C112,41 120,47 126,55 C116,49 106,47 100,49 C94,47 84,50 74,54 Z" fill="rgba(255,255,255,0.7)"/>
  <!-- Mayo drip left -->
  <path d="M78,56 C75,62 73,70 76,78 C78,70 80,62 78,56 Z" fill="white" opacity="0.85"/>
  <!-- Mayo drip right -->
  <path d="M118,57 C121,63 122,72 119,80 C117,72 116,63 118,57 Z" fill="white" opacity="0.85"/>
  <!-- Mayo center drip -->
  <path d="M100,47 C98,55 97,65 99,74 C101,65 102,55 100,47 Z" fill="white" opacity="0.8"/>
  <!-- Mayo highlight -->
  <ellipse cx="100" cy="50" rx="18" ry="5" fill="rgba(255,255,255,0.5)"/>
</svg>
