<svg width="306" height="103" viewBox="0 0 306 103" fill="none" xmlns="http://www.w3.org/2000/svg">
<path d="M268.721 11.1464H109.443C88.9195 11.1464 72.2427 28.5472 72.2427 49.9531V52.94C72.2427 74.3459 88.9195 91.7694 109.443 91.7694H268.721C289.245 91.7694 305.921 74.3459 305.921 52.94V49.9531C305.921 28.5472 289.245 11.1464 268.721 11.1464Z" fill="#41A4CC"/>
<path d="M303.392 52.9407C303.392 72.9664 287.892 89.1453 268.749 89.1453H109.448C90.3049 89.1453 74.8047 72.8985 74.8047 52.9407V49.9538C74.8047 29.9508 90.3049 13.7493 109.448 13.7493H268.726C287.869 13.7493 303.369 29.9961 303.369 49.9538L303.392 52.9407Z" fill="#96D7F6"/>
<path d="M268.726 13.7048H109.448C90.3048 13.7048 74.8047 29.9516 74.8047 49.9094V52.9415C74.8047 72.9672 90.3048 89.1461 109.448 89.1461H268.726C287.869 89.1461 303.369 72.8993 303.369 52.9415V49.9546C303.392 29.9516 287.869 13.7048 268.726 13.7048ZM290.042 52.9415C290.042 65.5905 280.47 75.8635 268.726 75.8635H109.448C97.6816 75.8635 88.1325 65.5905 88.1325 52.9415V49.9546C88.1325 37.3283 97.6816 27.0326 109.448 27.0326H268.726C280.47 27.0326 290.042 37.3283 290.042 49.9546V52.9415Z" fill="#59C0F1"/>
<g opacity="0.6" style="mix-blend-mode:multiply">
<path d="M296.374 72.9878C292.858 77.0507 288.375 80.1634 283.34 82.039C280.263 83.1477 274.606 85.3426 271.438 83.4645C271.264 83.3684 271.13 83.2117 271.064 83.0241C270.997 82.8365 271.001 82.6309 271.076 82.4463C272.569 79.482 276.982 78.4412 279.652 76.9251C284.203 74.601 287.867 70.8494 290.083 66.2447C291.985 61.2637 292.508 55.8624 291.599 50.6089C291.454 47.6233 290.474 44.7383 288.771 42.2819C289.611 44.7755 290.039 47.3893 290.038 50.0206V52.9396C290.038 65.5885 280.466 75.8616 268.723 75.8616H109.445C97.678 75.8616 88.129 65.5885 88.129 52.9396V49.9527C88.129 49.2286 88.129 48.5045 88.129 47.6899C86.544 52.1687 86.2 56.9929 87.1333 61.6513C87.8389 66.1593 89.9446 70.3312 93.1524 73.5762C94.7531 75.1476 96.4537 76.6139 98.2437 77.966C100.235 79.482 102.475 80.0704 104.534 81.3828C104.641 81.4339 104.735 81.509 104.808 81.6023C104.881 81.6956 104.932 81.8046 104.956 81.9207C104.98 82.0368 104.977 82.1569 104.947 82.2716C104.917 82.3864 104.861 82.4926 104.783 82.582C102.52 84.8448 98.2889 83.6682 95.5736 82.831C91.7805 81.749 88.2259 79.9602 85.0968 77.5587C83.565 76.3168 82.1418 74.9467 80.8428 73.463C83.9182 78.2397 88.1354 82.1748 93.1134 84.9127C98.0913 87.6505 103.673 89.1048 109.354 89.1441H268.632C275.45 89.0603 282.092 86.9676 287.727 83.128C293.362 79.2883 297.739 73.8721 300.311 67.5572C299.142 69.4669 297.825 71.2826 296.374 72.9878V72.9878Z" fill="#59C0F1"/>
</g>
<g opacity="0.5">
<path opacity="0.5" d="M105.148 27.5063C106.191 27.2749 107.25 27.1236 108.316 27.0538C108.035 22.5494 106.987 18.1261 105.216 13.9749C103.22 14.2378 101.252 14.677 99.333 15.2873C101.481 19.2572 103.422 23.3357 105.148 27.5063V27.5063Z" fill="#96D7F6"/>
</g>
<g opacity="0.5">
<path opacity="0.5" d="M98.402 30.3113C100.027 29.2254 101.803 28.3865 103.674 27.8222C101.974 23.6806 100.04 19.6388 97.8816 15.7163C96.2262 16.3449 94.6223 17.1014 93.0845 17.9791C95.5098 21.7765 97.3055 25.9409 98.402 30.3113Z" fill="#96D7F6"/>
</g>
<g opacity="0.5">
<path opacity="0.5" d="M96.5914 31.6939L96.9761 31.3771C96.0442 26.8946 94.2789 22.6269 91.7717 18.796C90.7997 19.3901 89.8628 20.0398 88.9658 20.742C91.4549 24.4756 94.9848 27.553 96.5914 31.6939Z" fill="#96D7F6"/>
</g>
<g opacity="0.5">
<path opacity="0.5" d="M88.2209 47.3277C86.4569 46.4111 84.6353 45.6099 82.7675 44.9292C80.456 43.8598 78.0139 43.099 75.504 42.6664C75.3456 43.5489 75.2098 44.4314 75.0967 45.2912C79.3147 46.7485 83.7596 47.4382 88.2209 47.3277V47.3277Z" fill="#96D7F6"/>
</g>
<g opacity="0.5">
<path opacity="0.5" d="M88.2432 55.2031C88.2432 54.66 88.2432 54.117 88.13 53.5513C86.7497 53.8454 85.3468 54.0038 83.9892 54.1622C80.957 54.5243 77.9022 54.7279 74.938 54.8863C74.938 55.9272 75.0964 56.9454 75.2095 57.9411C79.6409 57.5061 84.0114 56.588 88.2432 55.2031Z" fill="#96D7F6"/>
</g>
<g opacity="0.5">
<path opacity="0.5" d="M247.158 27.0326C247.158 25.4487 246.932 23.8874 246.864 22.756C246.548 19.7499 246.457 16.7244 246.593 13.7048H130.557C130.557 15.0851 130.444 16.3975 130.398 17.3932C130.398 19.0224 130.172 20.6516 130.014 22.2582C129.855 23.8647 130.014 25.4487 130.014 27.0326H247.158Z" fill="#96D7F6"/>
</g>
<g opacity="0.5">
<path opacity="0.5" d="M255.872 27.0326C256.437 22.5071 257.026 18.1173 257.818 13.7048H252.704C252.84 18.1547 252.658 22.6086 252.161 27.0326H255.872Z" fill="#96D7F6"/>
</g>
<g opacity="0.5">
<path opacity="0.5" d="M264.762 13.7048H259.286C258.494 18.2304 257.883 22.575 257.34 27.0326H262.929C263.608 22.5976 264.083 18.1399 264.762 13.7048Z" fill="#96D7F6"/>
</g>
<g opacity="0.5">
<path opacity="0.5" d="M269.717 27.0532C271.235 22.8247 272.171 18.4096 272.5 13.9291L271.414 13.8159C270.102 18.1831 269.152 22.5955 268.133 27.0306H269.717V27.0532Z" fill="#96D7F6"/>
</g>
<g opacity="0.5">
<path opacity="0.5" d="M276.239 14.6086C275.47 14.4275 274.7 14.2691 273.976 14.156C273.65 18.6087 272.737 22.9988 271.261 27.2123C271.558 27.2354 271.853 27.2808 272.143 27.348C273.637 23.1166 275.221 18.9984 276.239 14.6086Z" fill="#96D7F6"/>
</g>
<g opacity="0.5">
<path opacity="0.5" d="M283.883 33.8893C286.938 30.6309 289.676 27.101 292.753 23.8652C291.025 22.161 289.121 20.644 287.074 19.3396C284.97 23.2995 283.114 27.3951 281.1 31.4003C282.099 32.1471 283.03 32.98 283.883 33.8893V33.8893Z" fill="#96D7F6"/>
</g>
<g opacity="0.5">
<path opacity="0.5" d="M299.318 32.9815C298.911 32.1669 298.458 31.3749 298.006 30.6056C295.043 34.0105 291.505 36.8675 287.552 39.0458V39.2721C291.904 38.1041 295.93 35.9519 299.318 32.9815V32.9815Z" fill="#96D7F6"/>
</g>
<g opacity="0.5">
<path opacity="0.5" d="M302.013 39.9529C301.496 38.0703 300.83 36.2317 300.022 34.4543C296.565 37.3469 292.53 39.4684 288.188 40.677C288.551 41.5551 288.86 42.4543 289.115 43.3697C293.56 42.8743 297.906 41.7229 302.013 39.9529V39.9529Z" fill="#96D7F6"/>
</g>
<g opacity="0.5">
<path opacity="0.5" d="M301.127 43.7538L302.869 43.5728C302.733 42.8713 302.597 42.1698 302.439 41.4684C298.317 43.1932 293.977 44.3429 289.541 44.8852L289.677 45.6093C293.501 45.2472 297.235 44.3195 301.127 43.7538Z" fill="#96D7F6"/>
</g>
<g opacity="0.5">
<path opacity="0.5" d="M289.25 59.116C289.022 60.0237 288.735 60.9156 288.391 61.7861C288.516 61.7462 288.65 61.7462 288.775 61.7861C292.464 64.0488 296.129 66.4926 300.089 68.3934C300.316 67.8956 300.542 67.3751 300.745 66.8547C296.521 64.9136 292.639 62.3001 289.25 59.116V59.116Z" fill="#96D7F6"/>
</g>
<g opacity="0.5">
<path opacity="0.5" d="M298.548 49.7273C300.064 49.863 301.716 50.044 303.368 50.0893V49.9535C303.369 48.3184 303.256 46.6852 303.028 45.0659H302.576C298.299 45.5637 294.158 46.6725 289.859 47.0798C289.859 47.5776 289.972 48.0754 289.995 48.5959C292.823 49.1163 295.697 49.4784 298.548 49.7273Z" fill="#96D7F6"/>
</g>
<g opacity="0.5">
<path opacity="0.5" d="M88.8349 36.7601C89.2196 37.009 90.1699 37.4842 91.2334 38.0951C91.5729 37.5068 91.9123 36.9411 92.297 36.398C89.0838 33.3433 85.2371 30.9447 81.9107 27.9805C81.0831 29.077 80.3273 30.2258 79.6479 31.4199C82.6348 33.3433 85.848 34.9498 88.8349 36.7601Z" fill="#96D7F6"/>
</g>
<g opacity="0.5">
<path opacity="0.5" d="M118.974 27.0326H126.26C127.098 24.7699 126.26 21.1494 126.034 19.0676C125.791 17.2891 125.64 15.4991 125.582 13.7048H116.101C116.214 16.5453 116.693 19.3592 117.526 22.0771C117.925 23.7523 118.408 25.4062 118.974 27.0326V27.0326Z" fill="#96D7F6"/>
</g>
<g opacity="0.3">
<g style="mix-blend-mode:multiply" opacity="0.3">
<g opacity="0.3" style="mix-blend-mode:multiply">
<path d="M116.029 27.0314C115.622 24.7686 115.192 22.9131 115.102 22.5058C114.513 19.6321 113.744 16.7131 113.246 13.7715H110.983C111.866 18.2971 113.246 22.6416 114.174 27.0993L116.029 27.0314Z" fill="#1DAAEB"/>
</g>
</g>
<g style="mix-blend-mode:multiply" opacity="0.3">
<g opacity="0.3" style="mix-blend-mode:multiply">
<path d="M132.144 27.0326H133.683C133.683 26.0144 133.683 24.9735 133.683 23.9552C133.683 20.5384 133.683 17.1669 133.525 13.7048H131.692C131.76 18.1173 132.235 22.5976 132.144 27.0326Z" fill="#1DAAEB"/>
</g>
</g>
<g style="mix-blend-mode:multiply" opacity="0.3">
<g opacity="0.3" style="mix-blend-mode:multiply">
<path d="M277.1 24.3158C278.118 22.1661 280.426 18.4099 279.883 15.9435C279.873 15.8608 279.873 15.7772 279.883 15.6946C278.615 15.2179 277.314 14.8322 275.991 14.5405C275.754 19.0051 274.838 23.4076 273.276 27.5968C273.943 27.7555 274.6 27.9519 275.244 28.1851C275.969 26.8501 276.58 25.4245 277.1 24.3158Z" fill="#1DAAEB"/>
</g>
</g>
<g style="mix-blend-mode:multiply" opacity="0.3">
<g opacity="0.3" style="mix-blend-mode:multiply">
<path d="M299.067 44.1842C300.266 43.958 301.488 43.7996 302.687 43.6185C302.506 42.5626 302.28 41.5217 302.008 40.4959C297.709 41.6047 293.387 42.7587 289.178 44.0485C289.405 45.0215 289.586 45.9945 289.721 46.9901C292.844 46.1529 295.853 44.8178 299.067 44.1842Z" fill="#1DAAEB"/>
</g>
</g>
<g style="mix-blend-mode:multiply" opacity="0.3">
<g opacity="0.3" style="mix-blend-mode:multiply">
<path d="M302.193 61.7878C302.442 60.7242 302.646 59.6607 302.827 58.552L301.152 58.1673C298.188 57.4658 294.635 57.2396 291.626 56.1987C294.832 58.607 298.398 60.4933 302.193 61.7878V61.7878Z" fill="#1DAAEB"/>
</g>
</g>
<g style="mix-blend-mode:multiply" opacity="0.3">
<g opacity="0.3" style="mix-blend-mode:multiply">
<path d="M294.339 77.1751C295.186 76.1931 295.979 75.1658 296.715 74.0977C292.664 72.2027 288.768 69.9935 285.062 67.4904L284.768 67.8298C287.678 71.2195 290.881 74.3466 294.339 77.1751V77.1751Z" fill="#1DAAEB"/>
</g>
</g>
<g style="mix-blend-mode:multiply" opacity="0.3">
<g opacity="0.3" style="mix-blend-mode:multiply">
<path d="M103.267 88.6939L104.715 88.9202C106.533 84.7544 107.847 80.3865 108.63 75.9092H108.381C107.017 80.2994 105.307 84.5744 103.267 88.6939V88.6939Z" fill="#1DAAEB"/>
</g>
</g>
<g style="mix-blend-mode:multiply" opacity="0.3">
<g opacity="0.3" style="mix-blend-mode:multiply">
<path d="M86.864 72.6971C88.6063 70.5928 90.2808 68.4431 92.0458 66.384L91.7969 66.0446C89.0257 68.5431 86.0928 70.8562 83.0172 72.9687L81.2749 74.2585C81.8859 75.1409 82.5421 76.0008 83.2209 76.8154C84.556 75.5709 85.7326 74.0548 86.864 72.6971Z" fill="#1DAAEB"/>
</g>
</g>
<g style="mix-blend-mode:multiply" opacity="0.3">
<g opacity="0.3" style="mix-blend-mode:multiply">
<path d="M82.5874 61.4509C80.5735 62.1071 78.5822 62.8764 76.5456 63.4647H76.1836C76.4778 64.483 76.7946 65.4786 77.1792 66.4516C78.3559 66.0669 79.442 65.6596 80.664 65.2297C83.6509 64.0757 86.6378 62.9669 89.5794 61.5187C89.3305 60.8399 89.0815 60.1611 88.9005 59.4596C86.8725 60.3448 84.7563 61.0123 82.5874 61.4509V61.4509Z" fill="#1DAAEB"/>
</g>
</g>
<g style="mix-blend-mode:multiply" opacity="0.3">
<g opacity="0.3" style="mix-blend-mode:multiply">
<path d="M77.5892 35.3824C77.2272 36.2423 76.9104 37.1022 76.6162 37.9847C78.3133 38.5277 80.0783 38.8672 81.617 39.2292C83.9108 39.8596 86.2598 40.2688 88.6317 40.4511C84.7047 39.3597 80.977 37.6487 77.5892 35.3824V35.3824Z" fill="#1DAAEB"/>
</g>
</g>
<g style="mix-blend-mode:multiply" opacity="0.3">
<g opacity="0.3" style="mix-blend-mode:multiply">
<path d="M94.5596 85.774C95.2837 86.136 96.0304 86.4754 96.8224 86.7696C98.6933 82.632 101.032 78.7221 103.792 75.1163C103.317 74.9805 102.864 74.8221 102.389 74.6411C99.2436 77.6958 97.6596 82.6966 94.5596 85.774Z" fill="#1DAAEB"/>
</g>
</g>
<g style="mix-blend-mode:multiply" opacity="0.3">
<g opacity="0.3" style="mix-blend-mode:multiply">
<path d="M243.679 89.2596H245.172C245.037 84.734 244.561 80.3669 244.494 75.9092H243.453C243.521 80.3442 243.86 84.8245 243.679 89.2596Z" fill="#1DAAEB"/>
</g>
</g>
<g style="mix-blend-mode:multiply" opacity="0.3">
<g opacity="0.3" style="mix-blend-mode:multiply">
<path d="M257.136 76.4975C257.124 76.3016 257.124 76.1051 257.136 75.9092H254.556C255.393 80.4347 256.615 84.7793 257.385 89.2596H258.72C258.267 85.164 257.724 81.0683 257.045 76.9953C257.015 76.8239 257.047 76.6472 257.136 76.4975Z" fill="#1DAAEB"/>
</g>
</g>
<g style="mix-blend-mode:multiply" opacity="0.3">
<g opacity="0.3" style="mix-blend-mode:multiply">
<path d="M263.726 75.9092H260.875C260.875 76.1128 262.345 85.2318 262.843 89.2596H266.939C265.409 84.9325 264.332 80.4584 263.726 75.9092V75.9092Z" fill="#1DAAEB"/>
</g>
</g>
<g style="mix-blend-mode:multiply" opacity="0.3">
<g opacity="0.3" style="mix-blend-mode:multiply">
<path d="M259.558 13.7048H256.707C256.616 18.2304 256.383 22.673 256.005 27.0326H257.25C258.645 22.7215 259.423 18.2342 259.558 13.7048V13.7048Z" fill="#1DAAEB"/>
</g>
</g>
<g style="mix-blend-mode:multiply" opacity="0.3">
<g opacity="0.3" style="mix-blend-mode:multiply">
<path d="M142.395 27.0326C142.689 22.5071 142.214 17.9815 142.101 13.7048H139.453C140.178 18.1126 140.587 22.5666 140.675 27.0326H142.395Z" fill="#1DAAEB"/>
</g>
</g>
</g>
<g opacity="0.6" style="mix-blend-mode:multiply">
<path d="M268.727 77.967H109.449C96.551 77.967 86.0742 66.6531 86.0742 53.0764V49.9537C86.0742 36.196 96.551 25.0631 109.449 25.0631H268.727C281.602 25.0631 292.079 36.377 292.079 49.9537V52.9406C292.079 66.7662 281.602 77.967 268.727 77.967ZM109.449 29.0682C98.8138 29.0682 90.1925 38.4588 90.1925 49.9537V52.9406C90.1925 64.4582 98.8138 73.8261 109.449 73.8261H268.727C279.339 73.8261 287.983 64.4582 287.983 52.9406V49.9537C287.983 38.4588 279.339 29.0682 268.727 29.0682H109.449Z" fill="#59C0F1"/>
</g>
<path d="M106.282 32.4402C100.738 32.0103 94.4246 41.4913 100.082 43.4373C105.376 45.2476 114.79 36.649 108.114 32.9833C107.552 32.6663 106.926 32.4806 106.282 32.4402V32.4402Z" fill="#E4F5FD"/>
<path d="M99.6042 46.4241C99.0611 43.5956 93.3363 45.2701 94.3772 48.6869C95.418 52.1037 98.6991 50.6328 99.4685 47.9854C99.6401 47.4837 99.6867 46.9478 99.6042 46.4241V46.4241Z" fill="#E4F5FD"/>
<path opacity="0.8" d="M300.721 50.0902C300.721 50.0902 300.721 49.8866 300.721 49.5019C300.721 49.1172 300.721 48.5063 300.563 47.7596C300.36 45.5726 299.935 43.4118 299.296 41.3106C298.849 39.7722 298.312 38.2611 297.689 36.7851C296.932 35.1099 296.055 33.4916 295.064 31.9427C292.685 28.2299 289.612 25.0108 286.013 22.4616C283.903 21.0308 281.622 19.8679 279.225 18.9996C276.704 17.9733 274.067 17.259 271.373 16.8725L270.332 16.7368H269.269C268.567 16.7368 267.843 16.7368 267.119 16.6236H262.593L253.293 16.4426C247.003 16.2842 240.486 16.1937 233.878 16.1937H173.258L163.189 16.3747L153.119 16.5784L143.14 16.7142L123.703 16.8725H109.968C109.221 16.8725 108.452 16.8725 107.705 16.8725H106.687L105.623 17.0083C102.935 17.3381 100.302 18.0229 97.7941 19.0448C95.4368 19.9712 93.1963 21.1711 91.1188 22.62C87.4826 25.1522 84.3707 28.3641 81.9546 32.0785C80.9593 33.6088 80.0963 35.2213 79.3749 36.8982C78.7559 38.3321 78.2121 39.7974 77.7457 41.288C77.1129 43.3975 76.6959 45.5658 76.5012 47.7596C76.5012 48.5063 76.5012 49.0946 76.3428 49.5019C76.1844 49.9092 76.3428 50.0902 76.3428 50.0902H76.1392C76.1392 50.0902 76.1392 49.8866 76.1392 49.5019C76.1392 49.1172 76.1392 48.5063 76.1392 47.7369C76.2501 43.865 77.0152 40.0397 78.402 36.423C79.1048 34.6483 79.9446 32.931 80.9136 31.2865C83.4938 26.8722 87.038 23.0979 91.2815 20.2454C95.5249 17.393 100.358 15.5361 105.42 14.8134L106.528 14.655H107.683C108.452 14.655 109.176 14.655 109.945 14.655H114.471C117.503 14.655 120.603 14.655 123.748 14.655L143.186 14.7908L153.165 14.9492L163.234 15.1528L173.304 15.3112C176.652 15.3112 230.62 15.3112 233.924 15.3112C240.531 15.3112 247.048 15.3112 253.338 15.0849L262.639 14.8813H267.164C267.933 14.8813 268.703 14.8813 269.427 14.8813H270.536L271.644 15.0171C277.18 15.781 282.433 17.929 286.918 21.2624C290.668 23.9943 293.824 27.4583 296.196 31.4449C299.134 36.4103 300.768 42.0381 300.948 47.8048C300.948 48.5742 300.948 49.1625 300.948 49.5698V50.1581L300.721 50.0902Z" fill="#E4F5FD"/>
<path d="M119.788 17.6417C118.842 12.5516 116.098 7.97118 112.056 4.73545C108.015 1.49973 102.945 -0.175711 97.7712 0.0145998H23.099C11.2872 0.0145998 2.46229 7.11975 1.08199 17.7322C-1.79176 40.1111 1.69296 72.831 4.18204 85.3894C6.44483 96.545 13.9799 102.949 24.9545 102.949H95.9836C100.987 103.036 105.851 101.3 109.669 98.0651C113.487 94.8301 115.998 90.3167 116.733 85.3668C117.48 81.2259 124.314 44.0936 119.788 17.6417Z" fill="#41A4CC"/>
<path d="M113.658 84.9356C112.051 93.3758 105.716 100.3 95.9403 100.3H24.9112C15.1133 100.3 9.07168 94.4393 7.19356 84.9356C4.45558 71.3589 1.37816 39.2274 4.09351 18.0251C5.36067 8.31771 13.2805 2.66075 23.0557 2.66075H97.7279C102.205 2.52454 106.583 4.00082 110.063 6.82078C113.543 9.64074 115.895 13.6168 116.69 18.0251C120.627 40.6529 116.102 72.1509 113.658 84.9356Z" fill="#57C5FF"/>
<path opacity="0.5" d="M7.14548 45.45C11.128 45.088 15.0879 44.7938 19.093 44.5901C26.5829 44.1828 34.0727 43.8887 41.5852 43.7529C56.2917 43.2463 71.0155 43.6922 85.6644 45.088C96.4579 46.2872 107.184 47.9617 117.932 49.4099C118.662 38.9356 118.26 28.4131 116.733 18.0251C115.937 13.6168 113.586 9.64074 110.105 6.82078C106.625 4.00082 102.248 2.52454 97.7704 2.66075H23.0982C13.3229 2.66075 5.40313 8.31771 4.13596 18.0251C3.1269 27.2963 2.83187 36.6314 3.25348 45.9478C4.70166 45.7668 5.9462 45.5632 7.14548 45.45Z" fill="url(#paint0_linear_35_2087)" style="mix-blend-mode:screen"/>
<path d="M82.9484 46.4221C67.2586 45.0946 51.4992 44.7847 35.7692 45.4943C28.302 45.7206 20.7669 45.9242 13.3223 46.5352L3.25293 47.3951C3.68017 59.9853 4.99587 72.5297 7.1902 84.9346C9.06832 94.4383 15.1099 100.299 24.9078 100.299H95.9369C105.712 100.299 112.048 93.3748 113.655 84.9346C115.733 73.7148 117.138 62.3806 117.863 50.9929C106.233 49.4316 94.6471 47.5761 82.9484 46.4221Z" fill="url(#paint1_linear_35_2087)" style="mix-blend-mode:multiply"/>
<g style="mix-blend-mode:screen" opacity="0.7">
<g style="mix-blend-mode:screen" opacity="0.5">
<g opacity="0.5" style="mix-blend-mode:screen">
<path d="M101.735 13.6811C104.722 11.5993 107.233 8.95184 110.288 6.89271C109.926 6.58653 109.549 6.29951 109.157 6.03284C106.441 8.97446 103.454 11.7124 100.49 14.473L101.735 13.6811Z" fill="#94D0FF"/>
</g>
</g>
<g style="mix-blend-mode:screen" opacity="0.5">
<g opacity="0.5" style="mix-blend-mode:screen">
<path d="M47.0207 14.0671H48.8762C48.8762 12.3474 49.012 10.6503 49.193 8.9532C49.3741 7.25611 49.5324 5.60429 49.8266 3.97508C49.8266 3.68092 50.0303 3.22836 50.1434 2.75317H46.4097C46.274 4.83494 46.7718 6.93933 46.7492 8.99847C46.5784 10.6919 46.6699 12.4016 47.0207 14.0671V14.0671Z" fill="#94D0FF"/>
</g>
</g>
<g style="mix-blend-mode:screen" opacity="0.5">
<g opacity="0.5" style="mix-blend-mode:screen">
<path d="M55.8677 13.5901C57.6779 13.5901 59.4881 13.5901 61.2984 13.5901C63.1086 13.5901 65.0998 13.839 67.0232 13.9748C67.3492 10.1672 67.939 6.38685 68.7882 2.66089H54.8721C54.94 6.3266 55.8451 9.94706 55.8677 13.5901Z" fill="#94D0FF"/>
</g>
</g>
<g style="mix-blend-mode:screen" opacity="0.5">
<g opacity="0.5" style="mix-blend-mode:screen">
<path d="M33.9607 13.8404H34.6169C37.0229 13.6784 39.4386 13.7315 41.8352 13.9988C41.8352 11.2156 41.2695 8.34183 41.36 5.58124C41.36 4.65349 41.36 3.70313 41.4732 2.77539H30.1592L31.0417 5.51335C31.8633 8.33981 32.8377 11.1196 33.9607 13.8404Z" fill="#94D0FF"/>
</g>
</g>
<g style="mix-blend-mode:screen" opacity="0.5">
<g opacity="0.5" style="mix-blend-mode:screen">
<path d="M29.0957 15.6494C28.3716 14.5633 27.5343 13.3866 26.8329 12.4136L24.0496 7.88804C23.0394 6.12767 21.9051 4.44142 20.6555 2.84204C20.0476 2.88854 19.4431 2.97166 18.8452 3.09095C21.3343 7.75229 25.6336 11.5311 28.1227 16.1925L29.0957 15.6494Z" fill="#94D0FF"/>
</g>
</g>
<g style="mix-blend-mode:screen" opacity="0.5">
<g opacity="0.5" style="mix-blend-mode:screen">
<path d="M43.6509 14.0213H45.167C44.8519 12.3513 44.7606 10.6468 44.8955 8.95266C44.8955 6.84827 44.4655 4.72126 44.5787 2.59424H43.2888C43.1757 4.42709 43.1531 6.25995 43.2888 8.07017C43.4246 9.8804 43.6057 12.0753 43.6509 14.0213Z" fill="#94D0FF"/>
</g>
</g>
<g style="mix-blend-mode:screen" opacity="0.5">
<g opacity="0.5" style="mix-blend-mode:screen">
<path d="M74.9636 14.2912H77.2264C78.5614 10.6028 78.4483 6.05466 80.6659 2.68311H76.4571C75.8411 4.80331 75.4318 6.9782 75.2352 9.1773C74.941 10.897 74.6695 12.6167 74.3979 14.3138L74.9636 14.2912Z" fill="#94D0FF"/>
</g>
</g>
<g style="mix-blend-mode:screen" opacity="0.5">
<g opacity="0.5" style="mix-blend-mode:screen">
<path d="M107.029 21.4872C104.585 22.6186 102.141 23.75 99.6069 24.7456C99.788 25.1756 99.969 25.6281 100.127 26.0807C102.209 25.6055 104.291 25.1303 106.282 24.542C108.703 23.8405 111.147 23.0033 113.659 22.4602C114.858 22.2113 116.103 22.0077 117.279 21.7135C117.121 20.469 116.94 19.2244 116.736 18.0252L116.601 17.369C115.514 17.7536 114.496 18.2741 113.433 18.704C111.283 19.6091 109.133 20.5142 107.029 21.4872Z" fill="#94D0FF"/>
</g>
</g>
<g style="mix-blend-mode:screen" opacity="0.5">
<g opacity="0.5" style="mix-blend-mode:screen">
<path d="M25.6805 17.4841L26.4498 17.0768C23.9834 12.2118 19.4805 8.36505 16.9461 3.50006C15.7448 3.8136 14.5774 4.24565 13.4614 4.78985C16.3804 7.98037 19.2542 11.2162 22.5126 14.2483C23.63 15.265 24.6877 16.3454 25.6805 17.4841Z" fill="#94D0FF"/>
</g>
</g>
<g style="mix-blend-mode:screen" opacity="0.5">
<g opacity="0.5" style="mix-blend-mode:screen">
<path d="M102.231 34.2047C102.221 34.3403 102.221 34.4764 102.231 34.612C102.231 34.612 102.231 34.793 102.231 34.8835H102.367C106.892 35.0872 111.418 35.2908 115.944 35.3135C116.69 35.3135 117.437 35.3135 118.206 35.3135C118.206 34.4762 118.206 33.639 118.206 32.8018C115.129 32.9149 112.029 32.8018 108.952 33.2091C106.666 33.5485 104.449 33.8426 102.231 34.2047Z" fill="#94D0FF"/>
</g>
</g>
<g style="mix-blend-mode:screen" opacity="0.5">
<g opacity="0.5" style="mix-blend-mode:screen">
<path d="M94.4453 17.5064L94.7395 17.7553C98.9483 13.5013 103.61 9.56404 107.66 5.19687C106.573 4.60332 105.438 4.10369 104.266 3.70343C101.832 6.43224 99.6441 9.37013 97.7263 12.483C96.7227 14.2146 95.6275 15.8915 94.4453 17.5064V17.5064Z" fill="#94D0FF"/>
</g>
</g>
<g style="mix-blend-mode:screen" opacity="0.5">
<g opacity="0.5" style="mix-blend-mode:screen">
<path d="M79.1714 14.2463H80.4385C81.197 10.2118 82.5386 6.30907 84.4211 2.66089H82.8823C81.5707 4.58992 80.7263 6.79785 80.4159 9.10982C80.0312 10.8522 79.7145 12.5719 79.1714 14.2463Z" fill="#94D0FF"/>
</g>
</g>
<g style="mix-blend-mode:screen" opacity="0.5">
<g opacity="0.5" style="mix-blend-mode:screen">
<path d="M88.814 15.0636C89.357 15.0636 89.8548 15.3351 90.3752 15.4935C91.665 13.2307 92.7738 10.9679 94.1315 8.86351C95.4892 6.75912 97.2994 4.7905 98.7928 2.70874H97.7746H94.652C93.6337 4.58685 92.8191 6.55548 91.8913 8.43359C90.8278 10.6059 89.8322 12.8234 88.814 15.0636Z" fill="#94D0FF"/>
</g>
</g>
<g style="mix-blend-mode:screen" opacity="0.5">
<g opacity="0.5" style="mix-blend-mode:screen">
<path d="M103.681 71.5855C103.681 71.5855 103.681 71.6986 103.681 71.7439C105.237 72.1844 106.751 72.7599 108.207 73.4636C110.47 74.3234 112.732 75.1607 115.108 75.9526C115.244 75.0324 115.38 74.0821 115.516 73.1015C111.646 71.9928 107.732 70.9745 103.726 70.1599C103.749 70.6351 103.704 71.0424 103.681 71.5855Z" fill="#94D0FF"/>
</g>
</g>
<g style="mix-blend-mode:screen" opacity="0.5">
<g opacity="0.5" style="mix-blend-mode:screen">
<path d="M103.456 73.3063C103.456 73.7136 103.32 74.1661 103.23 74.5961C105.204 74.822 107.072 75.6071 108.615 76.8588C110.494 77.9906 112.519 78.8586 114.634 79.4384C114.634 78.8048 114.838 78.1712 114.929 77.4924L108.14 75.2296C106.633 74.4637 105.067 73.8205 103.456 73.3063Z" fill="#94D0FF"/>
</g>
</g>
<g style="mix-blend-mode:screen" opacity="0.5">
<g opacity="0.5" style="mix-blend-mode:screen">
<path d="M22.1026 77.9673H22.2836L22.08 76.9038C21.345 77.2299 20.6342 77.608 19.953 78.0352C18.3916 78.8498 16.8077 79.5965 15.2011 80.298C12.4857 81.5651 9.70249 82.7644 7.00977 84.0995C7.00977 84.3936 7.00977 84.6652 7.19079 84.9593C7.25969 85.3711 7.35031 85.779 7.46232 86.1812C9.25063 84.8533 11.1088 83.6221 13.0288 82.4929C16.0157 80.8863 19.1384 79.5739 22.1026 77.9673Z" fill="#94D0FF"/>
</g>
</g>
<g style="mix-blend-mode:screen" opacity="0.5">
<g opacity="0.5" style="mix-blend-mode:screen">
<path d="M104.495 59.2099C106.816 59.3127 109.107 59.7784 111.284 60.5902C113.139 61.0428 115.063 61.4727 116.986 61.9705C116.986 61.3369 117.099 60.7033 117.167 60.0471C112.995 59.1774 108.755 58.6777 104.495 58.5537C104.473 58.78 104.495 59.0063 104.495 59.2099Z" fill="#94D0FF"/>
</g>
</g>
<g style="mix-blend-mode:screen" opacity="0.5">
<g opacity="0.5" style="mix-blend-mode:screen">
<path d="M104.132 49.8848C104.121 50.043 104.121 50.2018 104.132 50.36C106.87 50.36 109.653 50.36 112.368 50.6089L117.822 51.1972C117.822 50.6315 117.822 50.0432 117.822 49.4549C113.319 49.3191 108.793 49.6585 104.132 49.8848Z" fill="#94D0FF"/>
</g>
</g>
<g style="mix-blend-mode:screen" opacity="0.5">
<g opacity="0.5" style="mix-blend-mode:screen">
<path d="M17.6012 35.2705V34.1617C14.8406 33.8902 12.0574 33.596 9.27412 33.3924C7.24435 33.1893 5.20334 33.1213 3.16455 33.1887C3.16455 33.9128 3.16455 34.6595 3.16455 35.4515C7.89382 35.0442 12.7588 35.542 17.6012 35.2705Z" fill="#94D0FF"/>
</g>
</g>
<g style="mix-blend-mode:screen" opacity="0.5">
<g opacity="0.5" style="mix-blend-mode:screen">
<path d="M12.2626 38.3225C14.0728 38.3225 15.8831 38.0736 17.6933 37.9152V37.2816C17.6933 37.1458 17.6933 36.9874 17.6933 36.8517C12.8283 37.1006 7.91805 36.5575 3.07568 36.8517V38.8203C6.06257 39.1145 9.23047 38.4356 12.2626 38.3225Z" fill="#94D0FF"/>
</g>
</g>
<g style="mix-blend-mode:screen" opacity="0.5">
<g opacity="0.5" style="mix-blend-mode:screen">
<path d="M17.4225 29.1359C17.4113 29.0003 17.4113 28.8641 17.4225 28.7286C17.4548 27.3119 17.6677 25.9051 18.0561 24.5424C15.7933 23.7504 13.5306 23.0263 11.1094 22.2796C8.68818 21.5329 6.19911 20.9898 3.82318 20.1752C3.55164 22.619 3.37063 25.2212 3.23486 27.8687C7.44366 28.2307 11.6751 28.5475 15.8612 29.0227L17.4225 29.1359Z" fill="#94D0FF"/>
</g>
</g>
<g style="mix-blend-mode:screen" opacity="0.5">
<g opacity="0.5" style="mix-blend-mode:screen">
<path d="M18.0316 56.9458C18.0316 56.4932 18.0316 56.0633 17.8505 55.6107C13.1892 56.4479 8.45999 57.2399 3.88916 58.3487C3.88916 58.937 3.88915 59.548 4.02492 60.1363C6.28771 59.4122 8.73152 59.0049 10.8133 58.5297C12.895 58.0545 15.633 57.4662 18.0316 56.9458Z" fill="#94D0FF"/>
</g>
</g>
<g style="mix-blend-mode:screen" opacity="0.5">
<g opacity="0.5" style="mix-blend-mode:screen">
<path d="M19.6869 66.8349V66.3145C14.8445 68.4189 10.2058 70.8401 5.40869 73.1029C5.54446 74.2569 5.70285 75.3656 5.86124 76.4518C10.3868 73.578 15.2292 70.8853 20.049 68.3058C19.8906 67.7853 19.7774 67.3101 19.6869 66.8349Z" fill="#94D0FF"/>
</g>
</g>
</g>
<g opacity="0.7" style="mix-blend-mode:multiply">
<path d="M20.9007 89.1458C22.8467 86.883 24.6343 84.6202 26.3767 82.3574C22.2584 85.3217 17.9591 88.1049 13.7503 91.0013C12.6868 91.748 11.6233 92.4947 10.5371 93.264C11.6368 94.8914 13.034 96.2964 14.6554 97.4049C15.1383 96.4796 15.6826 95.5875 16.2846 94.7348C17.6875 92.8115 19.3168 91.0465 20.9007 89.1458Z" fill="#4BC1F2"/>
</g>
<g opacity="0.7" style="mix-blend-mode:multiply">
<path d="M104.426 95.9331C102.819 94.9148 100.987 94.1002 99.4932 92.9688C98.617 92.259 97.7786 91.5037 96.9814 90.7061C97.8866 91.9053 98.7917 92.9688 99.7194 94.236C100.647 95.5032 101.846 96.9061 102.842 98.2638L103.159 98.6937C104.305 98.2015 105.391 97.5789 106.395 96.8382C105.719 96.5811 105.061 96.2787 104.426 95.9331V95.9331Z" fill="#4BC1F2"/>
</g>
<g opacity="0.4" style="mix-blend-mode:screen">
<path d="M14.1579 16.734C15.4663 18.7382 15.96 21.1664 15.5382 23.5224C15.1309 30.0618 15.6513 36.6465 15.855 43.186C15.855 44.5889 15.855 45.9692 16.036 47.3721H99.9404C100.416 42.6203 101.072 37.8684 101.864 33.1392C102.026 29.8771 102.588 26.6473 103.538 23.5224C104.08 22.5604 104.498 21.5341 104.783 20.4676C105.054 18.9968 104.783 17.5033 105.824 16.2136C106.45 15.3557 107.253 14.6415 108.178 14.1187C109.103 13.5958 110.128 13.2763 111.187 13.1814C114.06 13.1814 115.938 15.8741 116.821 18.6574C116.832 18.4463 116.832 18.2348 116.821 18.0238C116.252 14.7077 114.779 11.6131 112.563 9.08159C110.347 6.55005 107.474 4.67997 104.262 3.67773C105.544 4.10597 106.638 4.96376 107.359 6.10595C108.081 7.24813 108.386 8.60456 108.222 9.94565C107.521 12.9099 104.33 13.453 101.321 13.453C95.1207 13.453 89.0111 15.1501 82.8111 15.58C76.2453 15.9685 69.6608 15.9155 63.1021 15.4216C56.6758 15.0143 50.2721 14.3807 43.8458 13.8603C37.4194 13.3398 31.1967 13.7019 24.9062 13.5435C23.057 13.6448 21.2117 13.2841 19.5367 12.4941C17.8618 11.704 16.4098 10.5093 15.3119 9.0179C14.5426 7.90914 13.7054 5.7595 14.701 4.49234C14.8822 4.2809 15.0872 4.09108 15.3119 3.92664C12.6291 4.84302 10.2249 6.43002 8.32793 8.53692C6.43092 10.6438 5.10398 13.2007 4.47314 15.9647C4.9992 15.1131 5.65589 14.3495 6.41915 13.7019C9.36078 11.3486 12.5966 14.6749 14.1579 16.734Z" fill="#E4F1FF"/>
</g>
<path d="M23.2307 19.1564C20.9893 16.1858 18.3901 13.503 15.492 11.1688C13.9968 9.91794 12.5904 8.56454 11.2832 7.11842L10.7401 6.43958C9.77615 7.13591 8.89542 7.94072 8.11523 8.83814C9.88021 9.83376 11.5999 10.9199 13.2744 11.9608C16.8801 13.9349 20.2249 16.3522 23.2307 19.1564V19.1564Z" fill="#E4F1FF"/>
<path d="M98.856 17.8902C101.171 16.9514 103.397 15.808 105.509 14.4733C107.5 13.2062 109.242 11.5996 111.279 10.4003C111.777 10.1062 112.32 9.83463 112.863 9.5631C112.433 9.06529 111.98 8.54484 111.505 8.09229C109.831 9.58572 107.998 10.9887 106.233 12.4821C103.993 14.3376 101.073 15.9215 98.856 17.8902Z" fill="#E4F1FF"/>
<g opacity="0.4" style="mix-blend-mode:multiply">
<path d="M111.348 88.1727C110.16 88.6814 108.831 88.7585 107.591 88.3908C106.351 88.023 105.279 87.2335 104.56 86.1589C103.519 84.6428 104.108 82.7194 104.085 81.0676C104.062 79.4158 104.085 77.8997 103.972 76.3158C103.451 78.307 103.135 80.3435 102.659 82.3348C102.601 82.5164 102.489 82.6763 102.339 82.7936C102.188 82.9108 102.006 82.9801 101.815 82.9923C101.625 83.0045 101.435 82.9591 101.271 82.862C101.107 82.7649 100.976 82.6206 100.894 82.4479C99.5054 77.7273 98.8715 72.8168 99.0163 67.8982C98.8805 63.0106 99.0163 58.1003 99.4462 53.2354C99.4462 51.8098 99.6725 50.3842 99.8082 48.9813H16.0171C16.3112 54.4573 16.7412 59.9332 17.3974 65.4091C17.8726 69.5048 17.8499 73.5552 17.9178 77.6734C17.9178 81.4296 18.212 86.7246 13.5054 88.6027C12.4277 89.0479 11.2256 89.0893 10.1199 88.7193C9.01418 88.3494 8.07905 87.5929 7.48633 86.5888C9.74912 95.1195 15.6098 100.301 24.8193 100.301H95.8484C99.84 100.334 103.724 99.008 106.862 96.5405C110 94.0731 112.204 90.6114 113.113 86.7246C112.597 87.2891 112.003 87.7768 111.348 88.1727V88.1727Z" fill="#35B7E4"/>
</g>
<path opacity="0.5" d="M18.8899 94.3261C20.1068 92.0305 21.114 89.6297 21.8994 87.1531C21.0547 88.0129 20.1722 88.8502 19.252 89.6648C16.9892 91.6786 14.9979 93.8509 12.8257 95.9327C14.0692 97.0874 15.4903 98.0347 17.0344 98.7385C17.5413 97.2232 18.1615 95.7482 18.8899 94.3261V94.3261Z" fill="#E4F1FF"/>
<path opacity="0.5" d="M101.207 90.2532C99.7933 89.3223 98.2742 88.5627 96.6813 87.9904L95.5952 87.5153L96.6134 88.624C97.7222 89.778 98.8763 90.8868 100.121 91.9503C101.886 93.7153 102.995 95.8197 104.646 97.6525L104.963 97.992C106.279 97.217 107.482 96.2653 108.538 95.1635C106.117 93.4664 103.651 91.8824 101.207 90.2532Z" fill="#E4F1FF"/>
<path d="M104.106 78.8944C103.624 82.3991 101.885 85.6091 99.2124 87.9275C96.5402 90.2459 93.1169 91.5148 89.5793 91.4981H31.3349C23.302 91.4981 18.3465 86.701 16.8078 78.8944C14.545 67.5805 12.0559 41.4453 14.2734 24.0445C15.3143 16.0795 21.8086 11.4634 29.8188 11.4634H91.0953C94.765 11.3457 98.3547 12.5519 101.209 14.8617C104.063 17.1715 105.991 20.4309 106.641 24.0445C109.831 42.5994 106.12 68.4177 104.106 78.8944Z" fill="#94D0FF"/>
<g style="mix-blend-mode:multiply" opacity="0.15">
<g opacity="0.15" style="mix-blend-mode:multiply">
<path d="M106.643 24.0455C106.009 20.5041 104.145 17.3002 101.38 14.9986C98.6144 12.697 95.1253 11.4454 91.5276 11.4644C93.1794 12.5958 100.104 15.99 100.918 17.7097C103.566 23.4346 101.823 41.6048 97.6372 46.1756C89.4911 55.091 71.0041 52.2172 58.2419 51.8778C46.2718 51.561 19.5029 56.607 21.4942 35.6763C21.7883 32.5989 19.2314 24.3623 18.2131 21.4433C17.3759 19.1806 20.8832 15.9674 22.3314 13.6367C22.5469 13.3141 22.7812 13.0043 23.0329 12.709C20.676 13.6104 18.6125 15.1427 17.068 17.1381C15.5235 19.1336 14.5576 21.5153 14.2758 24.0229C12.0131 41.4237 14.5927 67.672 16.8102 78.8728C18.3489 86.6794 23.3044 91.4765 31.3373 91.4765H89.5816C93.1193 91.4931 96.5426 90.2243 99.2148 87.9059C101.887 85.5875 103.626 82.3775 104.109 78.8728C106.123 68.4187 109.834 42.6004 106.643 24.0455Z" fill="#4BC1F2"/>
</g>
</g>
<g style="mix-blend-mode:multiply" opacity="0.15">
<g opacity="0.15" style="mix-blend-mode:multiply">
<path d="M106.641 24.0435C106.008 20.3648 104.023 17.0556 101.075 14.7661C102.334 16.6742 103.31 18.7551 103.971 20.9435C105.137 25.8725 104.862 31.0328 103.179 35.81C99.287 48.5948 110.465 60.4065 96.6169 66.9912C85.303 72.354 37.4902 73.7795 26.2214 66.9912C13.414 59.2525 20.2929 48.1196 17.1703 35.3122C15.9465 30.8775 15.1882 26.3274 14.9075 21.7355V21.1246C14.5652 22.0838 14.3299 23.0779 14.206 24.0888C11.9432 41.4896 14.5228 67.7379 16.7404 78.9387C18.2791 86.7453 23.2346 91.5424 31.2675 91.5424H89.5118C93.0495 91.559 96.4728 90.2901 99.145 87.9718C101.817 85.6534 103.556 82.4433 104.039 78.9387C106.121 68.4167 109.832 42.5984 106.641 24.0435Z" fill="#4BC1F2"/>
</g>
</g>
<path d="M14.2749 24.0455C14.4938 20.417 16.117 17.0164 18.8005 14.5644C22.3942 11.7194 26.8931 10.2653 31.4721 10.4688C42.4919 10.2199 53.4665 10.0841 64.4863 10.1294C73.5374 10.1294 82.5887 10.1293 91.6398 10.514C95.37 10.5997 98.947 12.0145 101.727 14.5036C104.506 16.9927 106.305 20.3926 106.8 24.0907C105.868 20.7059 103.837 17.7267 101.028 15.6215C98.2179 13.5162 94.7883 12.4041 91.2778 12.46C82.7697 12.46 73.8769 12.7768 65.2104 12.8221C54.6507 12.8221 44.091 12.724 33.5313 12.5279C28.6889 12.4148 24.0502 12.5279 20.1129 15.2885C17.1688 17.4024 15.0938 20.5148 14.2749 24.0455V24.0455Z" fill="#E4F1FF"/>
<path opacity="0.5" d="M106.643 24.0428C109.697 40.7648 108.611 57.9846 106.077 74.684C105.036 81.6307 103.067 89.3921 94.3556 92.0395C90.4809 92.8444 86.5117 93.0958 82.5664 92.7862H65.7991C54.9528 92.7862 44.114 92.7862 33.2828 92.7862C30.0446 92.9743 26.807 92.4089 23.8243 91.1344C21.8552 90.0688 20.1387 88.5916 18.7916 86.8033C17.4445 85.015 16.4984 82.9575 16.0176 80.7709C15.009 76.373 14.3582 71.9007 14.0716 67.3978C13.6417 62.8722 13.2797 58.143 13.0986 53.5043C12.6318 45.015 12.8512 36.5019 13.7548 28.048C13.9359 26.7356 14.0943 25.4458 14.2527 24.1333C13.2589 41.0667 14.2767 58.0582 17.2848 74.7518C18.0541 78.9154 18.6651 83.3052 21.8104 86.6993C23.0828 87.9252 24.592 88.8785 26.2456 89.501C27.8991 90.1236 29.6623 90.4022 31.4273 90.3198C41.0668 90.3198 50.6836 90.3198 60.3231 90.3198H77.1583C82.0138 90.5801 86.8809 90.5348 91.7307 90.184C99.379 89.211 102.094 82.3774 103.203 76.6073C106.507 59.478 108.453 41.7378 106.575 24.4049C106.665 24.2691 106.643 24.156 106.643 24.0428Z" fill="#E4F1FF"/>
<path d="M38.145 18.7054C35.4522 10.9667 23.1653 19.2032 21.4682 23.3668C20.8799 24.7923 19.9068 27.6208 21.0382 29.0237C23.5499 32.0558 30.6777 27.6434 32.8727 26.3084C35.4296 24.7244 39.2311 21.8281 38.145 18.7054Z" fill="#E4F1FF"/>
<path d="M47.4221 16.5991C45.5214 16.1692 41.9461 17.64 42.0593 20.2422C42.2855 24.5189 46.7432 21.4188 48.0104 19.4502C49.2776 17.4816 48.5309 16.848 47.4221 16.5991Z" fill="#E4F1FF"/>
<path d="M76.9632 42.8465C84.9976 55.8907 88.4082 68.889 80.2823 76.0977C79.6185 76.6927 74.9947 79.3701 74.2165 79.8507C63.9846 86.1668 48.6026 79.8507 39.8815 65.7081C31.1604 51.5655 32.3736 35.02 42.6054 28.7039C43.2463 28.3149 48.8315 24.7449 49.4724 24.4474C59.6813 19.9849 68.7686 29.5964 76.9632 42.8465Z" fill="url(#paint2_radial_35_2087)"/>
<path d="M81.0994 75.5673C91.3293 69.2532 92.5535 52.6877 83.8338 38.5673C75.1142 24.4468 59.7526 18.1185 49.5228 24.4326C39.2929 30.7467 38.0687 47.3122 46.7883 61.4326C55.508 75.5531 70.8696 81.8814 81.0994 75.5673Z" fill="url(#paint3_linear_35_2087)"/>
<path d="M41.2333 46.7363L88.9818 63.8996L89.5769 56.1875L44.2319 29.756C44.2319 29.756 40.1803 35.4313 41.2333 46.7363Z" fill="url(#paint4_linear_35_2087)" style="mix-blend-mode:screen"/>
<path d="M78.3815 41.9535C84.5389 51.9311 83.6691 63.6022 76.4587 68.0647C76.1938 68.2273 75.9185 68.3726 75.6347 68.4995C68.3786 72.1839 58.1696 67.6985 52.3556 58.0871C46.5415 48.4756 47.0222 37.3537 53.4772 32.548C53.7295 32.3442 53.9973 32.1606 54.2783 31.9987C61.5116 27.5363 72.2241 31.9987 78.3815 41.9535Z" fill="url(#paint5_radial_35_2087)"/>
<path d="M76.7106 43.0063C82.5933 52.5491 82.0439 63.6023 75.6347 68.4996C68.3786 72.184 58.1697 67.6987 52.3556 58.0872C46.5415 48.4757 47.0222 37.3539 53.4772 32.5481C60.5502 28.9324 70.782 33.4177 76.7106 43.0063Z" fill="url(#paint6_linear_35_2087)"/>
<path d="M80.5355 38.6358C80.9265 38.3239 81.4036 38.1391 81.9028 38.1063C82.4019 38.0736 82.8991 38.1944 83.3275 38.4525C83.7559 38.7107 84.095 39.0938 84.2992 39.5503C84.5034 40.0069 84.5628 40.5149 84.4695 41.0063C84.3763 41.4976 84.1348 41.9486 83.7775 42.2986C83.4202 42.6486 82.9643 42.8809 82.4711 42.9642C81.9779 43.0474 81.471 42.9777 81.0185 42.7644C80.5661 42.5511 80.1899 42.2044 79.9404 41.771C79.6117 41.2738 79.49 40.6681 79.6012 40.0826C79.7123 39.4971 80.0475 38.978 80.5355 38.6358V38.6358Z" fill="url(#paint7_radial_35_2087)"/>
<path d="M80.4418 39.0927C80.7767 38.8212 81.187 38.659 81.617 38.6281C82.0471 38.5972 82.4763 38.699 82.8466 38.9198C83.2169 39.1405 83.5106 39.4697 83.6878 39.8626C83.865 40.2556 83.9173 40.6935 83.8377 41.1171C83.758 41.5408 83.5502 41.9298 83.2422 42.2315C82.9343 42.5333 82.5412 42.7333 82.116 42.8045C81.6907 42.8757 81.2539 42.8147 80.8644 42.6298C80.4749 42.4448 80.1517 42.1447 79.9383 41.7702C79.6548 41.3468 79.5487 40.8292 79.6429 40.3286C79.7371 39.8279 80.0239 39.3841 80.4418 39.0927V39.0927Z" fill="url(#paint8_linear_35_2087)"/>
<path d="M52.1039 26.4152C52.6455 26.17 53.2614 26.1452 53.821 26.3459C54.3807 26.5467 54.8403 26.9573 55.1025 27.4908C55.302 27.7265 55.4472 28.0031 55.5278 28.3011C55.6085 28.5991 55.6225 28.9112 55.5691 29.2153C55.5156 29.5194 55.3959 29.808 55.2185 30.0606C55.0411 30.3133 54.8102 30.5239 54.5423 30.6774C54.2744 30.8309 53.976 30.9237 53.6682 30.9491C53.3605 30.9745 53.0509 30.9319 52.7614 30.8244C52.472 30.7168 52.2097 30.547 51.9932 30.3268C51.7767 30.1066 51.6113 29.8416 51.5087 29.5504C51.1801 29.0532 51.0584 28.4475 51.1695 27.862C51.2807 27.2765 51.6159 26.7575 52.1039 26.4152Z" fill="url(#paint9_radial_35_2087)"/>
<path d="M52.0123 26.8726C52.2402 26.761 52.4881 26.6961 52.7414 26.6818C52.9948 26.6676 53.2484 26.7042 53.4873 26.7895C53.7263 26.8748 53.9458 27.0071 54.1327 27.1786C54.3197 27.3501 54.4704 27.5573 54.576 27.788C54.6963 28.1067 54.7228 28.4532 54.6525 28.7865C54.5822 29.1198 54.418 29.4261 54.1792 29.6691C53.9404 29.9121 53.6371 30.0817 53.305 30.1579C52.9729 30.2341 52.6259 30.2137 52.305 30.0992C51.9842 29.9846 51.7028 29.7806 51.4941 29.5113C51.2854 29.242 51.1582 28.9187 51.1274 28.5794C51.0966 28.2402 51.1636 27.8992 51.3204 27.5967C51.4772 27.2943 51.7173 27.0431 52.0123 26.8726V26.8726Z" fill="url(#paint10_linear_35_2087)"/>
<path d="M78.4525 69.095C78.9942 68.8498 79.61 68.8249 80.1696 69.0257C80.7293 69.2264 81.1889 69.637 81.4511 70.1706C81.6506 70.4062 81.7958 70.6829 81.8764 70.9809C81.957 71.2789 81.9711 71.591 81.9177 71.8951C81.8642 72.1991 81.7445 72.4877 81.5671 72.7404C81.3897 72.9931 81.1588 73.2036 80.8909 73.3572C80.623 73.5107 80.3246 73.6035 80.0168 73.6289C79.7091 73.6543 79.3995 73.6117 79.11 73.5042C78.8206 73.3966 78.5583 73.2267 78.3419 73.0066C78.1254 72.7864 77.96 72.5213 77.8574 72.2302C77.5287 71.733 77.407 71.1272 77.5182 70.5418C77.6293 69.9563 77.9645 69.4372 78.4525 69.095Z" fill="url(#paint11_radial_35_2087)"/>
<path d="M78.361 69.5524C78.5888 69.4408 78.8367 69.3759 79.0901 69.3617C79.3434 69.3474 79.5971 69.384 79.836 69.4693C80.075 69.5546 80.2944 69.6869 80.4814 69.8584C80.6684 70.0299 80.8191 70.2371 80.9247 70.4678C81.045 70.7865 81.0715 71.133 81.0012 71.4663C80.9309 71.7996 80.7667 72.1059 80.5279 72.3489C80.2891 72.5919 79.9857 72.7615 79.6536 72.8377C79.3215 72.9139 78.9746 72.8935 78.6537 72.779C78.3328 72.6644 78.0514 72.4604 77.8427 72.1911C77.6341 71.9218 77.5068 71.5985 77.476 71.2592C77.4453 70.92 77.5122 70.579 77.669 70.2766C77.8258 69.9741 78.0659 69.7229 78.361 69.5524V69.5524Z" fill="url(#paint12_linear_35_2087)"/>
<path d="M48.7616 58.3158C49.3057 58.0635 49.9272 58.0349 50.4922 58.236C51.0573 58.4372 51.5208 58.852 51.783 59.3913C52.1047 59.8867 52.2223 60.4871 52.1114 61.0671C52.0005 61.6472 51.6696 62.1619 51.1879 62.5036C50.6431 62.7158 50.0404 62.7262 49.4886 62.5328C48.9369 62.3394 48.4725 61.9551 48.1795 61.4493C47.8864 60.9435 47.784 60.3496 47.8908 59.7749C47.9975 59.2002 48.3064 58.6826 48.7616 58.3158V58.3158Z" fill="url(#paint13_radial_35_2087)"/>
<path d="M48.6943 58.7052C48.9222 58.5936 49.1701 58.5287 49.4234 58.5144C49.6768 58.5001 49.9304 58.5367 50.1694 58.6221C50.4083 58.7074 50.6278 58.8397 50.8148 59.0112C51.0017 59.1827 51.1525 59.3899 51.258 59.6206C51.5415 60.0439 51.6476 60.5615 51.5534 61.0622C51.4592 61.5629 51.1724 62.0066 50.7544 62.2981C50.2889 62.512 49.7583 62.5361 49.2754 62.3651C48.7924 62.1942 48.3951 61.8418 48.1679 61.3827C47.8866 60.9566 47.7842 60.4371 47.8827 59.9362C47.9812 59.4353 48.2727 58.9932 48.6943 58.7052V58.7052Z" fill="url(#paint14_linear_35_2087)"/>
<path d="M34.4333 50.9472L41.3003 46.7365C40.3695 41.1094 41.1676 35.3323 43.5893 30.1682L37.0199 34.6306C37.0199 34.6306 32.6021 43.6242 34.4333 50.9472Z" fill="url(#paint15_linear_35_2087)" style="mix-blend-mode:screen"/>
<path d="M41.0251 43.8533C41.0251 44.5627 44.3671 38.8416 44.1839 36.187C44.0008 33.5324 43.8177 31.7246 43.1539 31.7703C42.4901 31.8161 40.43 39.2764 41.0251 43.8533Z" fill="white"/>
<path d="M88.3399 63.8998C86.8521 65.4788 88.3399 58.2931 88.9808 58.2016C89.6218 58.11 89.6904 62.4581 88.3399 63.8998Z" fill="white"/>
<defs>
<linearGradient id="paint0_linear_35_2087" x1="28660" y1="3773.67" x2="28660" y2="2948.39" gradientUnits="userSpaceOnUse">
<stop stop-color="#545454"/>
<stop offset="1" stop-color="#94D0FF"/>
</linearGradient>
<linearGradient id="paint1_linear_35_2087" x1="28504.6" y1="4669.91" x2="28504.6" y2="6465.31" gradientUnits="userSpaceOnUse">
<stop stop-color="white"/>
<stop offset="1" stop-color="#41A4CC"/>
</linearGradient>
<radialGradient id="paint2_radial_35_2087" cx="0" cy="0" r="1" gradientTransform="matrix(496.475 -309.492 358.821 575.33 1445.31 -17273.2)" gradientUnits="userSpaceOnUse">
<stop stop-color="#FFBD00"/>
<stop offset="1" stop-color="#FF772C"/>
</radialGradient>
<linearGradient id="paint3_linear_35_2087" x1="615.284" y1="-16081.6" x2="-213.631" y2="-17424.6" gradientUnits="userSpaceOnUse">
<stop stop-color="#FFCC00"/>
<stop offset="1" stop-color="#FFBD00"/>
</linearGradient>
<linearGradient id="paint4_linear_35_2087" x1="4073.89" y1="-11704.6" x2="4726.23" y2="-12111.5" gradientUnits="userSpaceOnUse">
<stop stop-color="#FF9840"/>
<stop offset="0.1" stop-color="#EF8E3C"/>
<stop offset="0.29" stop-color="#C57531"/>
<stop offset="0.55" stop-color="#814D20"/>
<stop offset="0.88" stop-color="#241609"/>
<stop offset="1"/>
</linearGradient>
<radialGradient id="paint5_radial_35_2087" cx="0" cy="0" r="1" gradientTransform="matrix(235.119 -146.569 169.472 271.729 1130.56 -11399.6)" gradientUnits="userSpaceOnUse">
<stop stop-color="#FFBD00"/>
<stop offset="1" stop-color="#FF772C"/>
</radialGradient>
<linearGradient id="paint6_linear_35_2087" x1="1137.25" y1="-10681.2" x2="760.397" y2="-11285.7" gradientUnits="userSpaceOnUse">
<stop stop-color="#FFCC00"/>
<stop offset="1" stop-color="#FF9700"/>
</linearGradient>
<radialGradient id="paint7_radial_35_2087" cx="0" cy="0" r="1" gradientTransform="matrix(-2.62427 -4.5651 3.84237 -2.23218 -2112.46 -1923.38)" gradientUnits="userSpaceOnUse">
<stop stop-color="#FFBD00"/>
<stop offset="1" stop-color="#FF772C"/>
</radialGradient>
<linearGradient id="paint8_linear_35_2087" x1="4267.88" y1="-1807.8" x2="4275.6" y2="-1808.11" gradientUnits="userSpaceOnUse">
<stop stop-color="#00FFF4"/>
<stop offset="1" stop-color="#30A7FB"/>
</linearGradient>
<radialGradient id="paint9_radial_35_2087" cx="0" cy="0" r="1" gradientTransform="matrix(-2.36988 -4.12257 3.72271 -2.16266 -1879.18 -1534.57)" gradientUnits="userSpaceOnUse">
<stop stop-color="#FFBD00"/>
<stop offset="1" stop-color="#FF772C"/>
</radialGradient>
<linearGradient id="paint10_linear_35_2087" x1="3596.71" y1="-1552.22" x2="3603.18" y2="-1552.47" gradientUnits="userSpaceOnUse">
<stop stop-color="#00FFF4"/>
<stop offset="1" stop-color="#30A7FB"/>
</linearGradient>
<radialGradient id="paint11_radial_35_2087" cx="0" cy="0" r="1" gradientTransform="matrix(-2.36986 -4.12259 3.72267 -2.16267 -1808.87 -1492.37)" gradientUnits="userSpaceOnUse">
<stop stop-color="#FFBD00"/>
<stop offset="1" stop-color="#FF772C"/>
</radialGradient>
<linearGradient id="paint12_linear_35_2087" x1="3544.87" y1="-1506.62" x2="3551.33" y2="-1506.87" gradientUnits="userSpaceOnUse">
<stop stop-color="#00FFF4"/>
<stop offset="1" stop-color="#30A7FB"/>
</linearGradient>
<radialGradient id="paint13_radial_35_2087" cx="0" cy="0" r="1" gradientTransform="matrix(-2.28033 -3.96684 3.58336 -2.08173 -1719.06 -1372.38)" gradientUnits="userSpaceOnUse">
<stop stop-color="#FFBD00"/>
<stop offset="1" stop-color="#FF772C"/>
</radialGradient>
<linearGradient id="paint14_linear_35_2087" x1="3719.7" y1="-1756.46" x2="3726.47" y2="-1756.71" gradientUnits="userSpaceOnUse">
<stop stop-color="#00FFF4"/>
<stop offset="1" stop-color="#30A7FB"/>
</linearGradient>
<linearGradient id="paint15_linear_35_2087" x1="-1093.01" y1="-4785.2" x2="-1026.43" y2="-4826.73" gradientUnits="userSpaceOnUse">
<stop stop-color="#FF9840"/>
<stop offset="0.1" stop-color="#EF8E3C"/>
<stop offset="0.29" stop-color="#C57531"/>
<stop offset="0.55" stop-color="#814D20"/>
<stop offset="0.88" stop-color="#241609"/>
<stop offset="1"/>
</linearGradient>
</defs>
</svg>
